<svg xmlns="http://www.w3.org/2000/svg" width="81" height="100" viewBox="0 0 81 100">
  <g id="路径_1433" data-name="路径 1433" fill="#0cb5b0">
    <path d="M 0.5 99.31826782226562 L 0.5 0.6817435622215271 C 4.121873378753662 1.833491086959839 22.31815528869629 7.75769567489624 40.29834747314453 16.08262634277344 C 52.01974487304688 21.50970649719238 61.35386657714844 26.878173828125 68.04144287109375 32.03890609741211 C 76.30833435058594 38.41838836669922 80.5 44.46137237548828 80.5 50 C 80.5 55.53933334350586 76.30728149414062 61.58313369750977 68.03830718994141 67.96351623535156 C 61.34933471679688 73.12476348876953 52.0134391784668 78.49372100830078 40.28993225097656 83.9212646484375 C 22.30975341796875 92.24542999267578 4.120452404022217 98.16703796386719 0.5 99.31826782226562 Z" stroke="none"/>
    <path d="M 1 1.366744995117188 L 1 98.63330841064453 C 5.779525756835938 97.09494018554688 23.02336502075195 91.36406707763672 40.07987976074219 83.467529296875 C 51.76957321166992 78.05564117431641 61.07338714599609 72.70614624023438 67.73284912109375 67.56766510009766 C 75.87273406982422 61.28689193725586 80 55.37628173828125 80 50 C 80 44.62511825561523 75.87483978271484 38.71612167358398 67.73908996582031 32.43714904785156 C 61.08241271972656 27.2996826171875 51.78214645385742 21.95118713378906 40.09665298461914 16.54023742675781 C 23.0389404296875 8.641685485839844 5.781723022460938 2.905960083007812 1 1.366744995117188 M 0 0 C 0 0 81 25 81 50 C 81 75 0 100 0 100 L 0 0 Z" stroke="none" fill="#707070"/>
  </g>
</svg>
