<svg xmlns="http://www.w3.org/2000/svg" width="30" height="80" viewBox="0 0 30 80">
  <g id="路径_1434" data-name="路径 1434" fill="#0cb5b0">
    <path d="M 1.50296688079834 78.02150726318359 C 2.502936363220215 75.84616088867188 4.078139305114746 72.19522094726562 5.639244556427002 67.66283416748047 C 8.008622169494629 60.78379821777344 10.83301067352295 50.40054321289062 10.83301067352295 40 C 10.83301067352295 29.59945487976074 8.008622169494629 19.21619987487793 5.639244556427002 12.33716678619385 C 4.078139305114746 7.8047776222229 2.502936363220215 4.153837203979492 1.50296688079834 1.978489875793457 C 5.113354206085205 5.195269584655762 13.2998046875 12.78905868530273 18.93301200866699 20.29999923706055 C 22.78096580505371 25.43059921264648 25.45734405517578 30.55988883972168 27.02495574951172 33.95937728881836 C 28.48452377319336 37.12456512451172 29.27611923217773 39.40813064575195 29.47373008728027 39.99993515014648 C 29.27539443969727 40.593505859375 28.47955131530762 42.8882942199707 27.01686668395996 46.05815505981445 C 25.45027732849121 49.45320129394531 22.77613258361816 54.57583236694336 18.93301200866699 59.70000076293945 C 13.2998046875 67.21094512939453 5.113354206085205 74.80473327636719 1.50296688079834 78.02150726318359 Z" stroke="none"/>
    <path d="M 2.927866458892822 76.05974578857422 C 6.998763561248779 72.32935333251953 13.70939350128174 65.83148956298828 18.53301048278809 59.40000152587891 C 22.34503364562988 54.31729888916016 24.99935531616211 49.23482131958008 26.55478858947754 45.86616516113281 C 27.90464401245117 42.94275283813477 28.68342781066895 40.76844787597656 28.94582557678223 40.00030136108398 C 28.35349464416504 38.27050018310547 25.12864112854004 29.39417266845703 18.53301048278809 20.60000038146973 C 13.70939350128174 14.16851234436035 6.998763561248779 7.670649528503418 2.927866458892822 3.940255880355835 C 3.84465217590332 6.064567089080811 4.974667072296143 8.872337341308594 6.11198902130127 12.17434406280518 C 8.493800163269043 19.0894775390625 11.33301067352295 29.53027725219727 11.33301067352295 40 C 11.33301067352295 50.46972274780273 8.493800163269043 60.9105224609375 6.11198902130127 67.82565307617188 C 4.974667072296143 71.12766265869141 3.84465217590332 73.93543243408203 2.927866458892822 76.05974578857422 M 0 80 C 0 80 10.33301067352295 60 10.33301067352295 40 C 10.33301067352295 20 0 0 0 0 C 0 0 11.83301067352295 10 19.33301162719727 20 C 26.83301162719727 30 30 40 30 40 C 30 40 26.83301162719727 50 19.33301162719727 60 C 11.83301067352295 70 0 80 0 80 Z" stroke="none" fill="#707070"/>
  </g>
</svg>
